<svg xmlns="http://www.w3.org/2000/svg" viewBox="0 0 640 340"><defs><linearGradient id="sky" x1="0" y1="0" x2="0" y2="1"><stop offset="0" stop-color="#E4E0D5"/><stop offset="1" stop-color="#CFCBC0"/></linearGradient>
  <linearGradient id="bodyg" x1="0" y1="0" x2="0" y2="1"><stop offset="0" stop-color="#e4d1b2"/><stop offset=".18" stop-color="#c1b197"/><stop offset="1" stop-color="#978a76"/></linearGradient>
  <filter id="blur1"><feGaussianBlur stdDeviation="2.2"/></filter>
  <filter id="blur2"><feGaussianBlur stdDeviation="5"/></filter></defs><rect width="640" height="340" fill="url(#sky)"/><rect y="262" width="640" height="78" fill="#ADB2B5"/><ellipse cx="320" cy="278" rx="304" ry="12" fill="#000" opacity=".18" filter="url(#blur2)"/><rect x="30" y="106" width="580" height="168" rx="3" fill="url(#bodyg)"/><rect x="51.107692307692304" y="114" width="2.4" height="152" fill="#746a5b" opacity=".55"/><rect x="53.707692307692305" y="114" width="1.6" height="152" fill="#e4d1b2" opacity=".4"/><rect x="73.41538461538461" y="114" width="2.4" height="152" fill="#746a5b" opacity=".55"/><rect x="76.01538461538462" y="114" width="1.6" height="152" fill="#e4d1b2" opacity=".4"/><rect x="95.72307692307692" y="114" width="2.4" height="152" fill="#746a5b" opacity=".55"/><rect x="98.32307692307693" y="114" width="1.6" height="152" fill="#e4d1b2" opacity=".4"/><rect x="118.03076923076922" y="114" width="2.4" height="152" fill="#746a5b" opacity=".55"/><rect x="120.63076923076923" y="114" width="1.6" height="152" fill="#e4d1b2" opacity=".4"/><rect x="140.33846153846156" y="114" width="2.4" height="152" fill="#746a5b" opacity=".55"/><rect x="142.93846153846155" y="114" width="1.6" height="152" fill="#e4d1b2" opacity=".4"/><rect x="162.64615384615385" y="114" width="2.4" height="152" fill="#746a5b" opacity=".55"/><rect x="165.24615384615385" y="114" width="1.6" height="152" fill="#e4d1b2" opacity=".4"/><rect x="184.95384615384614" y="114" width="2.4" height="152" fill="#746a5b" opacity=".55"/><rect x="187.55384615384614" y="114" width="1.6" height="152" fill="#e4d1b2" opacity=".4"/><rect x="207.26153846153846" y="114" width="2.4" height="152" fill="#746a5b" opacity=".55"/><rect x="209.86153846153846" y="114" width="1.6" height="152" fill="#e4d1b2" opacity=".4"/><rect x="229.56923076923078" y="114" width="2.4" height="152" fill="#746a5b" opacity=".55"/><rect x="232.16923076923078" y="114" width="1.6" height="152" fill="#e4d1b2" opacity=".4"/><rect x="251.87692307692308" y="114" width="2.4" height="152" fill="#746a5b" opacity=".55"/><rect x="254.47692307692307" y="114" width="1.6" height="152" fill="#e4d1b2" opacity=".4"/><rect x="274.18461538461537" y="114" width="2.4" height="152" fill="#746a5b" opacity=".55"/><rect x="276.78461538461534" y="114" width="1.6" height="152" fill="#e4d1b2" opacity=".4"/><rect x="296.4923076923077" y="114" width="2.4" height="152" fill="#746a5b" opacity=".55"/><rect x="299.09230769230766" y="114" width="1.6" height="152" fill="#e4d1b2" opacity=".4"/><rect x="318.8" y="114" width="2.4" height="152" fill="#746a5b" opacity=".55"/><rect x="321.4" y="114" width="1.6" height="152" fill="#e4d1b2" opacity=".4"/><rect x="341.1076923076923" y="114" width="2.4" height="152" fill="#746a5b" opacity=".55"/><rect x="343.70769230769224" y="114" width="1.6" height="152" fill="#e4d1b2" opacity=".4"/><rect x="363.4153846153846" y="114" width="2.4" height="152" fill="#746a5b" opacity=".55"/><rect x="366.01538461538456" y="114" width="1.6" height="152" fill="#e4d1b2" opacity=".4"/><rect x="385.7230769230769" y="114" width="2.4" height="152" fill="#746a5b" opacity=".55"/><rect x="388.3230769230769" y="114" width="1.6" height="152" fill="#e4d1b2" opacity=".4"/><rect x="408.03076923076924" y="114" width="2.4" height="152" fill="#746a5b" opacity=".55"/><rect x="410.6307692307692" y="114" width="1.6" height="152" fill="#e4d1b2" opacity=".4"/><rect x="430.33846153846156" y="114" width="2.4" height="152" fill="#746a5b" opacity=".55"/><rect x="432.9384615384615" y="114" width="1.6" height="152" fill="#e4d1b2" opacity=".4"/><rect x="452.6461538461538" y="114" width="2.4" height="152" fill="#746a5b" opacity=".55"/><rect x="455.2461538461538" y="114" width="1.6" height="152" fill="#e4d1b2" opacity=".4"/><rect x="474.95384615384614" y="114" width="2.4" height="152" fill="#746a5b" opacity=".55"/><rect x="477.5538461538461" y="114" width="1.6" height="152" fill="#e4d1b2" opacity=".4"/><rect x="497.26153846153846" y="114" width="2.4" height="152" fill="#746a5b" opacity=".55"/><rect x="499.86153846153843" y="114" width="1.6" height="152" fill="#e4d1b2" opacity=".4"/><rect x="519.5692307692307" y="114" width="2.4" height="152" fill="#746a5b" opacity=".55"/><rect x="522.1692307692307" y="114" width="1.6" height="152" fill="#e4d1b2" opacity=".4"/><rect x="541.876923076923" y="114" width="2.4" height="152" fill="#746a5b" opacity=".55"/><rect x="544.4769230769231" y="114" width="1.6" height="152" fill="#e4d1b2" opacity=".4"/><rect x="564.1846153846153" y="114" width="2.4" height="152" fill="#746a5b" opacity=".55"/><rect x="566.7846153846153" y="114" width="1.6" height="152" fill="#e4d1b2" opacity=".4"/><rect x="586.4923076923076" y="114" width="2.4" height="152" fill="#746a5b" opacity=".55"/><rect x="589.0923076923076" y="114" width="1.6" height="152" fill="#e4d1b2" opacity=".4"/><rect x="30" y="106" width="580" height="9" fill="#746a5b"/><rect x="30" y="264" width="580" height="10" fill="#746a5b"/><rect x="30" y="106" width="12" height="168" fill="#978a76"/><rect x="598" y="106" width="12" height="168" fill="#978a76"/><rect x="26" y="104" width="14" height="14" rx="2" fill="#4A4E52"/><circle cx="33" cy="111" r="3" fill="#2E3134"/><rect x="600" y="104" width="14" height="14" rx="2" fill="#4A4E52"/><circle cx="607" cy="111" r="3" fill="#2E3134"/><rect x="26" y="262" width="14" height="14" rx="2" fill="#4A4E52"/><circle cx="33" cy="269" r="3" fill="#2E3134"/><rect x="600" y="262" width="14" height="14" rx="2" fill="#4A4E52"/><circle cx="607" cy="269" r="3" fill="#2E3134"/><rect x="554" y="115" width="44" height="149" fill="#b2a38b"/><rect x="564" y="118" width="4" height="144" rx="2" fill="#fbe6c4" stroke="#746a5b" stroke-width=".8"/><rect x="561" y="181.60000000000002" width="10" height="5" rx="2" fill="#3A3E42"/><rect x="570.5" y="118" width="4" height="144" rx="2" fill="#fbe6c4" stroke="#746a5b" stroke-width=".8"/><rect x="567.5" y="181.60000000000002" width="10" height="5" rx="2" fill="#3A3E42"/><rect x="577" y="118" width="4" height="144" rx="2" fill="#fbe6c4" stroke="#746a5b" stroke-width=".8"/><rect x="574" y="181.60000000000002" width="10" height="5" rx="2" fill="#3A3E42"/><rect x="583.5" y="118" width="4" height="144" rx="2" fill="#fbe6c4" stroke="#746a5b" stroke-width=".8"/><rect x="580.5" y="181.60000000000002" width="10" height="5" rx="2" fill="#3A3E42"/><text x="52" y="136" font-family="monospace" font-size="15" font-weight="700" fill="#F5F5EF" opacity=".85">ITI-40-0003</text><rect x="50" y="234" width="34" height="22" rx="2" fill="#D8D8D0" opacity=".8"/><rect x="172.7890282124281" y="185.70868349075317" width="50.93759083049372" height="1.6" fill="#e4d1b2" opacity="0.6281378143467009" transform="rotate(5.673789345193654 172.7890282124281 185.70868349075317)"/></svg>